<svg width="960" height="500" style="animation-delay: 0s; animation-direction: normal; animation-duration: 0s; animation-fill-mode: none; animation-iteration-count: 1; animation-name: none; animation-play-state: running; animation-timing-function: ease; background-attachment: scroll; background-blend-mode: normal; background-clip: border-box; background-color: rgba(0, 0, 0, 0); background-image: none; background-origin: padding-box; background-position: 0% 0%; background-repeat: repeat; background-size: auto; border-bottom-color: rgb(0, 0, 0); border-bottom-left-radius: 0px; border-bottom-right-radius: 0px; border-bottom-style: none; border-bottom-width: 0px; border-collapse: separate; border-image-outset: 0px; border-image-repeat: stretch; border-image-slice: 100%; border-image-source: none; border-image-width: 1; border-left-color: rgb(0, 0, 0); border-left-style: none; border-left-width: 0px; border-right-color: rgb(0, 0, 0); border-right-style: none; border-right-width: 0px; border-top-color: rgb(0, 0, 0); border-top-left-radius: 0px; border-top-right-radius: 0px; border-top-style: none; border-top-width: 0px; bottom: auto; box-shadow: none; box-sizing: content-box; break-after: auto; break-before: auto; break-inside: auto; caption-side: top; clear: none; clip: auto; color: rgb(0, 0, 0); content: normal; cursor: auto; direction: ltr; display: inline; empty-cells: show; float: none; font-family: sans-serif; font-kerning: auto; font-size: 10px; font-stretch: 100%; font-style: normal; font-variant: normal; font-variant-ligatures: normal; font-variant-caps: normal; font-variant-numeric: normal; font-variant-east-asian: normal; font-weight: 400; height: 500px; image-rendering: auto; isolation: auto; justify-items: normal; justify-self: auto; left: auto; letter-spacing: normal; line-height: normal; list-style-image: none; list-style-position: outside; list-style-type: disc; margin-bottom: 0px; margin-left: 0px; margin-right: 0px; margin-top: 0px; max-height: none; max-width: none; min-height: 0px; min-width: 0px; mix-blend-mode: normal; object-fit: fill; object-position: 50% 50%; offset-distance: 0px; offset-path: none; offset-rotate: auto 0deg; opacity: 1; orphans: 2; outline-color: rgb(0, 0, 0); outline-offset: 0px; outline-style: none; outline-width: 0px; overflow-anchor: auto; overflow-wrap: normal; overflow-x: hidden; overflow-y: hidden; padding-bottom: 0px; padding-left: 0px; padding-right: 0px; padding-top: 0px; pointer-events: auto; position: static; resize: none; right: auto; scroll-behavior: auto; speak: normal; table-layout: auto; tab-size: 8; text-align: start; text-align-last: auto; text-decoration: none solid rgb(0, 0, 0); text-decoration-line: none; text-decoration-style: solid; text-decoration-color: rgb(0, 0, 0); text-decoration-skip-ink: auto; text-underline-position: auto; text-indent: 0px; text-rendering: auto; text-shadow: none; text-size-adjust: auto; text-overflow: clip; text-transform: none; top: auto; touch-action: auto; transition-delay: 0s; transition-duration: 0s; transition-property: all; transition-timing-function: ease; unicode-bidi: normal; vertical-align: baseline; visibility: visible; white-space: normal; widows: 2; width: 960px; will-change: auto; word-break: normal; word-spacing: 0px; z-index: auto; zoom: 1; -webkit-appearance: none; backface-visibility: visible; -webkit-border-horizontal-spacing: 0px; -webkit-border-image: none; -webkit-border-vertical-spacing: 0px; -webkit-box-align: stretch; -webkit-box-decoration-break: slice; -webkit-box-direction: normal; -webkit-box-flex: 0; -webkit-box-ordinal-group: 1; -webkit-box-orient: horizontal; -webkit-box-pack: start; -webkit-box-reflect: none; column-count: auto; column-gap: normal; column-rule-color: rgb(0, 0, 0); column-rule-style: none; column-rule-width: 0px; column-span: none; column-width: auto; align-content: normal; align-items: normal; align-self: auto; flex-basis: auto; flex-grow: 0; flex-shrink: 1; flex-direction: row; flex-wrap: nowrap; justify-content: normal; -webkit-font-smoothing: auto; grid-auto-columns: auto; grid-auto-flow: row; grid-auto-rows: auto; grid-column-end: auto; grid-column-start: auto; grid-template-areas: none; grid-template-columns: none; grid-template-rows: none; grid-row-end: auto; grid-row-start: auto; row-gap: normal; -webkit-highlight: none; hyphens: manual; -webkit-hyphenate-character: auto; -webkit-line-break: auto; -webkit-line-clamp: none; -webkit-locale: auto; -webkit-margin-before-collapse: collapse; -webkit-margin-after-collapse: collapse; -webkit-mask-box-image: none; -webkit-mask-box-image-outset: 0px; -webkit-mask-box-image-repeat: stretch; -webkit-mask-box-image-slice: 0 fill; -webkit-mask-box-image-source: none; -webkit-mask-box-image-width: auto; -webkit-mask-clip: border-box; -webkit-mask-composite: source-over; -webkit-mask-image: none; -webkit-mask-origin: border-box; -webkit-mask-position: 0% 0%; -webkit-mask-repeat: repeat; -webkit-mask-size: auto; order: 0; perspective: none; perspective-origin: 480px 250px; -webkit-print-color-adjust: economy; -webkit-rtl-ordering: logical; shape-outside: none; shape-image-threshold: 0; shape-margin: 0px; -webkit-tap-highlight-color: rgba(0, 0, 0, 0.18); -webkit-text-combine: none; -webkit-text-decorations-in-effect: none; -webkit-text-emphasis-color: rgb(0, 0, 0); -webkit-text-emphasis-position: over right; -webkit-text-emphasis-style: none; -webkit-text-fill-color: rgb(0, 0, 0); -webkit-text-orientation: vertical-right; -webkit-text-security: none; -webkit-text-stroke-color: rgb(0, 0, 0); -webkit-text-stroke-width: 0px; transform: none; transform-origin: 480px 250px; transform-style: flat; -webkit-user-drag: auto; -webkit-user-modify: read-only; user-select: auto; -webkit-writing-mode: horizontal-tb; -webkit-app-region: none; buffered-rendering: auto; clip-path: none; clip-rule: nonzero; mask: none; filter: none; flood-color: rgb(0, 0, 0); flood-opacity: 1; lighting-color: rgb(255, 255, 255); stop-color: rgb(0, 0, 0); stop-opacity: 1; color-interpolation: srgb; color-interpolation-filters: linearrgb; color-rendering: auto; fill: rgb(0, 0, 0); fill-opacity: 1; fill-rule: nonzero; marker-end: none; marker-mid: none; marker-start: none; mask-type: luminance; shape-rendering: auto; stroke: none; stroke-dasharray: none; stroke-dashoffset: 0px; stroke-linecap: butt; stroke-linejoin: miter; stroke-miterlimit: 4; stroke-opacity: 1; stroke-width: 1px; alignment-baseline: auto; baseline-shift: 0px; dominant-baseline: auto; text-anchor: start; writing-mode: horizontal-tb; vector-effect: none; paint-order: normal; d: none; cx: 0px; cy: 0px; x: 0px; y: 0px; r: 0px; rx: auto; ry: auto; caret-color: rgb(0, 0, 0); line-break: auto;" version="1.1" xmlns="http://www.w3.org/2000/svg" xmlns:xlink="http://www.w3.org/1999/xlink">
  <style  type="text/css">svg { font: 10px sans-serif; }
    .y.axis path { display: none; }
    .y.axis line { stroke: rgb(255, 255, 255); stroke-opacity: 0.2; shape-rendering: crispedges; }
    .y.axis .zero line { stroke: rgb(0, 0, 0); stroke-opacity: 1; }
    .title { font: 300 78px "Helvetica Neue"; fill: rgb(102, 102, 102); }
    .birthyear, .age { text-anchor: middle; }
    .birthyear { fill: rgb(255, 255, 255); }
    rect { fill-opacity: 0.6; fill: rgb(227, 119, 194); }
    rect:first-child { fill: rgb(31, 119, 180); }
  </style>
  <svg>
    <g transform="translate(20,20)">
      <g class="birthyears">
        <g class="birthyear" transform="translate(-1400.3333333333335,0)">
          <rect x="-23" width="46" y="450" height="0"/>
          <rect x="-23" width="46" y="450" height="0"/>
          <text y="446">1760</text>
        </g>
        <g class="birthyear" transform="translate(-1352.888888888889,0)">
          <rect x="-23" width="46" y="450" height="0"/>
          <rect x="-23" width="46" y="450" height="0"/>
          <text y="446">1765</text>
        </g>
        <g class="birthyear" transform="translate(-1305.4444444444443,0)">
          <rect x="-23" width="46" y="450" height="0"/>
          <rect x="-23" width="46" y="450" height="0"/>
          <text y="446">1770</text>
        </g>
        <g class="birthyear" transform="translate(-1258,0)">
          <rect x="-23" width="46" y="450" height="0"/>
          <rect x="-23" width="46" y="450" height="0"/>
          <text y="446">1775</text>
        </g>
        <g class="birthyear" transform="translate(-1210.5555555555557,0)">
          <rect x="-23" width="46" y="450" height="0"/>
          <rect x="-23" width="46" y="450" height="0"/>
          <text y="446">1780</text>
        </g>
        <g class="birthyear" transform="translate(-1163.111111111111,0)">
          <rect x="-23" width="46" y="450" height="0"/>
          <rect x="-23" width="46" y="450" height="0"/>
          <text y="446">1785</text>
        </g>
        <g class="birthyear" transform="translate(-1115.6666666666665,0)">
          <rect x="-23" width="46" y="450" height="0"/>
          <rect x="-23" width="46" y="450" height="0"/>
          <text y="446">1790</text>
        </g>
        <g class="birthyear" transform="translate(-1068.2222222222222,0)">
          <rect x="-23" width="46" y="450" height="0"/>
          <rect x="-23" width="46" y="450" height="0"/>
          <text y="446">1795</text>
        </g>
        <g class="birthyear" transform="translate(-1020.7777777777778,0)">
          <rect x="-23" width="46" y="450" height="0"/>
          <rect x="-23" width="46" y="450" height="0"/>
          <text y="446">1800</text>
        </g>
        <g class="birthyear" transform="translate(-973.3333333333334,0)">
          <rect x="-23" width="46" y="450" height="0"/>
          <rect x="-23" width="46" y="450" height="0"/>
          <text y="446">1805</text>
        </g>
        <g class="birthyear" transform="translate(-925.8888888888889,0)">
          <rect x="-23" width="46" y="450" height="0"/>
          <rect x="-23" width="46" y="450" height="0"/>
          <text y="446">1810</text>
        </g>
        <g class="birthyear" transform="translate(-878.4444444444446,0)">
          <rect x="-23" width="46" y="450" height="0"/>
          <rect x="-23" width="46" y="450" height="0"/>
          <text y="446">1815</text>
        </g>
        <g class="birthyear" transform="translate(-831,0)">
          <rect x="-23" width="46" y="450" height="0"/>
          <rect x="-23" width="46" y="450" height="0"/>
          <text y="446">1820</text>
        </g>
        <g class="birthyear" transform="translate(-783.5555555555555,0)">
          <rect x="-23" width="46" y="450" height="0"/>
          <rect x="-23" width="46" y="450" height="0"/>
          <text y="446">1825</text>
        </g>
        <g class="birthyear" transform="translate(-736.1111111111111,0)">
          <rect x="-23" width="46" y="450" height="0"/>
          <rect x="-23" width="46" y="450" height="0"/>
          <text y="446">1830</text>
        </g>
        <g class="birthyear" transform="translate(-688.6666666666667,0)">
          <rect x="-23" width="46" y="450" height="0"/>
          <rect x="-23" width="46" y="450" height="0"/>
          <text y="446">1835</text>
        </g>
        <g class="birthyear" transform="translate(-641.2222222222222,0)">
          <rect x="-23" width="46" y="450" height="0"/>
          <rect x="-23" width="46" y="450" height="0"/>
          <text y="446">1840</text>
        </g>
        <g class="birthyear" transform="translate(-593.7777777777778,0)">
          <rect x="-23" width="46" y="450" height="0"/>
          <rect x="-23" width="46" y="450" height="0"/>
          <text y="446">1845</text>
        </g>
        <g class="birthyear" transform="translate(-546.3333333333333,0)">
          <rect x="-23" width="46" y="450" height="0"/>
          <rect x="-23" width="46" y="450" height="0"/>
          <text y="446">1850</text>
        </g>
        <g class="birthyear" transform="translate(-498.8888888888889,0)">
          <rect x="-23" width="46" y="450" height="0"/>
          <rect x="-23" width="46" y="450" height="0"/>
          <text y="446">1855</text>
        </g>
        <g class="birthyear" transform="translate(-451.44444444444446,0)">
          <rect x="-23" width="46" y="450" height="0"/>
          <rect x="-23" width="46" y="450" height="0"/>
          <text y="446">1860</text>
        </g>
        <g class="birthyear" transform="translate(-404,0)">
          <rect x="-23" width="46" y="450" height="0"/>
          <rect x="-23" width="46" y="450" height="0"/>
          <text y="446">1865</text>
        </g>
        <g class="birthyear" transform="translate(-356.55555555555554,0)">
          <rect x="-23" width="46" y="450" height="0"/>
          <rect x="-23" width="46" y="450" height="0"/>
          <text y="446">1870</text>
        </g>
        <g class="birthyear" transform="translate(-309.1111111111111,0)">
          <rect x="-23" width="46" y="450" height="0"/>
          <rect x="-23" width="46" y="450" height="0"/>
          <text y="446">1875</text>
        </g>
        <g class="birthyear" transform="translate(-261.66666666666663,0)">
          <rect x="-23" width="46" y="450" height="0"/>
          <rect x="-23" width="46" y="450" height="0"/>
          <text y="446">1880</text>
        </g>
        <g class="birthyear" transform="translate(-214.22222222222223,0)">
          <rect x="-23" width="46" y="450" height="0"/>
          <rect x="-23" width="46" y="450" height="0"/>
          <text y="446">1885</text>
        </g>
        <g class="birthyear" transform="translate(-166.77777777777777,0)">
          <rect x="-23" width="46" y="450" height="0"/>
          <rect x="-23" width="46" y="450" height="0"/>
          <text y="446">1890</text>
        </g>
        <g class="birthyear" transform="translate(-119.33333333333331,0)">
          <rect x="-23" width="46" y="450" height="0"/>
          <rect x="-23" width="46" y="450" height="0"/>
          <text y="446">1895</text>
        </g>
        <g class="birthyear" transform="translate(-71.88888888888889,0)">
          <rect x="-23" width="46" y="450" height="0"/>
          <rect x="-23" width="46" y="450" height="0"/>
          <text y="446">1900</text>
        </g>
        <g class="birthyear" transform="translate(-24.444444444444443,0)">
          <rect x="-23" width="46" y="450" height="0"/>
          <rect x="-23" width="46" y="450" height="0"/>
          <text y="446">1905</text>
        </g>
        <g class="birthyear" transform="translate(23,0)">
          <rect x="-23" width="46" y="436.99373141863106" height="13.006268581368943"/>
          <rect x="-23" width="46" y="408.82812103186006" height="41.171878968139936"/>
          <text y="446">1910</text>
        </g>
        <g class="birthyear" transform="translate(70.44444444444444,0)">
          <rect x="-23" width="46" y="412.47216420367516" height="37.52783579632484"/>
          <rect x="-23" width="46" y="373.3802641142345" height="76.61973588576552"/>
          <text y="446">1915</text>
        </g>
        <g class="birthyear" transform="translate(117.88888888888889,0)">
          <rect x="-23" width="46" y="376.4168894089001" height="73.58311059109991"/>
          <rect x="-23" width="46" y="325.3954893956477" height="124.6045106043523"/>
          <text y="446">1920</text>
        </g>
        <g class="birthyear" transform="translate(165.33333333333331,0)">
          <rect x="-23" width="46" y="337.3552325882695" height="112.64476741173053"/>
          <rect x="-23" width="46" y="281.5487054566025" height="168.45129454339752"/>
          <text y="446">1925</text>
        </g>
        <g class="birthyear" transform="translate(212.77777777777777,0)">
          <rect x="-23" width="46" y="303.3416104837144" height="146.65838951628558"/>
          <rect x="-23" width="46" y="249.47958630920996" height="200.52041369079004"/>
          <text y="446">1930</text>
        </g>
        <g class="birthyear" transform="translate(260.22222222222223,0)">
          <rect x="-23" width="46" y="277.75944045053967" height="172.24055954946033"/>
          <rect x="-23" width="46" y="264.1785497617795" height="185.8214502382205"/>
          <text y="446">1935</text>
        </g>
        <g class="birthyear" transform="translate(307.66666666666663,0)">
          <rect x="-23" width="46" y="251.85635143451842" height="198.14364856548158"/>
          <rect x="-23" width="46" y="230.7571465514552" height="219.2428534485448"/>
          <text y="446">1940</text>
        </g>
        <g class="birthyear" transform="translate(355.1111111111111,0)">
          <rect x="-23" width="46" y="200.19980410199793" height="249.80019589800207"/>
          <rect x="-23" width="46" y="182.3251040530879" height="267.6748959469121"/>
          <text y="446">1945</text>
        </g>
        <g class="birthyear" transform="translate(402.55555555555554,0)">
          <rect x="-23" width="46" y="120.96197572855208" height="329.0380242714479"/>
          <rect x="-23" width="46" y="105.36855406493513" height="344.6314459350649"/>
          <text y="446">1950</text>
        </g>
        <g class="birthyear" transform="translate(450,0)">
          <rect x="-23" width="46" y="66.15776931012086" height="383.84223068987916"/>
          <rect x="-23" width="46" y="53.15366648713218" height="396.84633351286783"/>
          <text y="446">1955</text>
        </g>
        <g class="birthyear" transform="translate(497.44444444444446,0)">
          <rect x="-23" width="46" y="12.197667220396102" height="437.8023327796039"/>
          <rect x="-23" width="46" y="5.687784271901658" height="444.31221572809835"/>
          <text y="446">1960</text>
        </g>
        <g class="birthyear" transform="translate(544.8888888888889,0)">
          <rect x="-23" width="46" y="6.205864615865386" height="443.7941353841346"/>
          <rect x="-23" width="46" y="0" height="450"/>
          <text y="446">1965</text>
        </g>
        <g class="birthyear" transform="translate(592.3333333333333,0)">
          <rect x="-23" width="46" y="55.29521478264166" height="394.70478521735834"/>
          <rect x="-23" width="46" y="58.64374795832152" height="391.3562520416785"/>
          <text y="446">1970</text>
        </g>
        <g class="birthyear" transform="translate(639.7777777777778,0)">
          <rect x="-23" width="46" y="76.42628725330013" height="373.57371274669987"/>
          <rect x="-23" width="46" y="81.87881602114604" height="368.121183978854"/>
          <text y="446">1975</text>
        </g>
        <g class="birthyear" transform="translate(687.2222222222222,0)">
          <rect x="-23" width="46" y="73.64862478210277" height="376.3513752178972"/>
          <rect x="-23" width="46" y="89.39179316801206" height="360.60820683198796"/>
          <text y="446">1980</text>
        </g>
        <g class="birthyear" transform="translate(734.6666666666667,0)">
          <rect x="-23" width="46" y="54.075428723473664" height="395.9245712765263"/>
          <rect x="-23" width="46" y="75.14323011002311" height="374.8567698899769"/>
          <text y="446">1985</text>
        </g>
        <g class="birthyear" transform="translate(782.1111111111111,0)">
          <rect x="-23" width="46" y="41.4748144215788" height="408.5251855784212"/>
          <rect x="-23" width="46" y="62.38633313643842" height="387.6136668635616"/>
          <text y="446">1990</text>
        </g>
        <g class="birthyear" transform="translate(829.5555555555555,0)">
          <rect x="-23" width="46" y="41.90359590661354" height="408.09640409338647"/>
          <rect x="-23" width="46" y="60.56709609701979" height="389.43290390298023"/>
          <text y="446">1995</text>
        </g>
        <g class="birthyear" transform="translate(877,0)">
          <rect x="-23" width="46" y="73.49141392824997" height="376.50858607175"/>
          <rect x="-23" width="46" y="89.91505586238564" height="360.08494413761434"/>
          <text y="446">2000</text>
        </g>
      </g>
      <text class="title" dy=".71em">2000</text>
      <g class="y axis" transform="translate(900,0)">
        <g class="tick zero" transform="translate(0,450)" style="opacity: 1;">
          <line x2="-900" y2="0"/>
          <text dy=".32em" x="3" y="0" style="text-anchor: start;">0M</text>
        </g>
        <g class="tick" transform="translate(0,411.32574320963846)" style="opacity: 1;">
          <line x2="-900" y2="0"/>
          <text dy=".32em" x="3" y="0" style="text-anchor: start;">1M</text>
        </g>
        <g class="tick" transform="translate(0,372.6514864192769)" style="opacity: 1;">
          <line x2="-900" y2="0"/>
          <text dy=".32em" x="3" y="0" style="text-anchor: start;">2M</text>
        </g>
        <g class="tick" transform="translate(0,333.9772296289154)" style="opacity: 1;">
          <line x2="-900" y2="0"/>
          <text dy=".32em" x="3" y="0" style="text-anchor: start;">3M</text>
        </g>
        <g class="tick" transform="translate(0,295.3029728385538)" style="opacity: 1;">
          <line x2="-900" y2="0"/>
          <text dy=".32em" x="3" y="0" style="text-anchor: start;">4M</text>
        </g>
        <g class="tick" transform="translate(0,256.62871604819225)" style="opacity: 1;">
          <line x2="-900" y2="0"/>
          <text dy=".32em" x="3" y="0" style="text-anchor: start;">5M</text>
        </g>
        <g class="tick" transform="translate(0,217.9544592578307)" style="opacity: 1;">
          <line x2="-900" y2="0"/>
          <text dy=".32em" x="3" y="0" style="text-anchor: start;">6M</text>
        </g>
        <g class="tick" transform="translate(0,179.28020246746914)" style="opacity: 1;">
          <line x2="-900" y2="0"/>
          <text dy=".32em" x="3" y="0" style="text-anchor: start;">7M</text>
        </g>
        <g class="tick" transform="translate(0,140.6059456771076)" style="opacity: 1;">
          <line x2="-900" y2="0"/>
          <text dy=".32em" x="3" y="0" style="text-anchor: start;">8M</text>
        </g>
        <g class="tick" transform="translate(0,101.93168888674606)" style="opacity: 1;">
          <line x2="-900" y2="0"/>
          <text dy=".32em" x="3" y="0" style="text-anchor: start;">9M</text>
        </g>
        <g class="tick" transform="translate(0,63.25743209638451)" style="opacity: 1;">
          <line x2="-900" y2="0"/>
          <text dy=".32em" x="3" y="0" style="text-anchor: start;">10M</text>
        </g>
        <g class="tick" transform="translate(0,24.583175306022927)" style="opacity: 1;">
          <line x2="-900" y2="0"/>
          <text dy=".32em" x="3" y="0" style="text-anchor: start;">11M</text>
        </g>
        <path class="domain" d="M-900,0H0V450H-900"/>
      </g>
      <text class="age" x="877" y="454" dy=".71em">0</text>
      <text class="age" x="829.5555555555555" y="454" dy=".71em">5</text>
      <text class="age" x="782.1111111111111" y="454" dy=".71em">10</text>
      <text class="age" x="734.6666666666667" y="454" dy=".71em">15</text>
      <text class="age" x="687.2222222222222" y="454" dy=".71em">20</text>
      <text class="age" x="639.7777777777778" y="454" dy=".71em">25</text>
      <text class="age" x="592.3333333333333" y="454" dy=".71em">30</text>
      <text class="age" x="544.8888888888889" y="454" dy=".71em">35</text>
      <text class="age" x="497.44444444444446" y="454" dy=".71em">40</text>
      <text class="age" x="450" y="454" dy=".71em">45</text>
      <text class="age" x="402.55555555555554" y="454" dy=".71em">50</text>
      <text class="age" x="355.1111111111111" y="454" dy=".71em">55</text>
      <text class="age" x="307.66666666666663" y="454" dy=".71em">60</text>
      <text class="age" x="260.22222222222223" y="454" dy=".71em">65</text>
      <text class="age" x="212.77777777777777" y="454" dy=".71em">70</text>
      <text class="age" x="165.33333333333331" y="454" dy=".71em">75</text>
      <text class="age" x="117.88888888888889" y="454" dy=".71em">80</text>
      <text class="age" x="70.44444444444444" y="454" dy=".71em">85</text>
      <text class="age" x="23" y="454" dy=".71em">90</text>
    </g>
  </svg>
</svg>
